<?xml version="1.0" encoding="utf-8"?>
<!-- Generator: Adobe Illustrator 18.1.1, SVG Export Plug-In . SVG Version: 6.00 Build 0)  -->
<!DOCTYPE svg PUBLIC "-//W3C//DTD SVG 1.1//EN" "http://www.w3.org/Graphics/SVG/1.1/DTD/svg11.dtd">
<svg version="1.1" id="Layer_1" xmlns="http://www.w3.org/2000/svg" xmlns:xlink="http://www.w3.org/1999/xlink" x="0px" y="0px"
	 viewBox="0 0 850 500" enable-background="new 0 0 850 500" xml:space="preserve">
<g>
	<rect fill="#C2D0D3" width="850" height="500"/>
	<g>
		<g>
			<g>
				<rect x="136.5" y="121.6" fill="#EBEDE6" width="146.1" height="106.3"/>
				<g>
					<circle fill="#727272" cx="148.5" cy="136.2" r="3"/>
					<circle fill="#727272" cx="159" cy="136.2" r="3"/>
					<circle fill="#727272" cx="169.5" cy="136.2" r="3"/>
				</g>
			</g>
			<g>
				<path fill="#FFFFFF" d="M214.5,199.7c1.2-0.1,2.4-0.5,3.4-0.9V185l11.3,5.7c1.1-1.2,1.9-2.7,2.7-4.5l-5.6-3h6.9
					c0.4-1.1,0.7-2.2,0.9-3.4h-19.6L214.5,199.7L214.5,199.7z"/>
				<path fill="#FFFFFF" d="M204.2,150.1c-1.2,0.1-2.4,0.5-3.4,0.9v13.8l-11.3-5.7c-1.1,1.2-1.9,2.7-2.7,4.5l5.6,3h-6.9
					c-0.4,1.1-0.7,2.2-0.9,3.4h19.6L204.2,150.1L204.2,150.1z"/>
				<path fill="#FFFFFF" d="M218.7,166.4l11.5-5.7c-0.1-0.4-0.7-0.9-1.1-1.2l-11.3,5.7v-13.8c-1.1-0.4-2.2-0.7-3.4-0.9v19.6H234
					c-0.4-2.2-1.2-4.2-2.2-6.1l-5.6,3h-7.6v-0.5h0.1V166.4z"/>
				<path fill="#FFFFFF" d="M184.7,180.1c0.4,2.2,1.2,4.2,2.2,6.1l5.6-3h7.6l-11.5,5.7c0.1,0.4,0.7,0.9,1.1,1.2l11.3-5.7v13.8
					c1.1,0.4,2.2,0.7,3.4,0.9v-19.6h-19.6v0.5h-0.1V180.1z"/>
				<path fill="#CB483D" d="M214.5,150.1c-1.6-0.1-3.4-0.5-5-0.5s-3.4,0.1-5,0.5v19.6h-19.6c-0.1,1.6-0.5,3.4-0.5,5s0.1,3.4,0.5,5
					h19.6v19.7c1.6,0.1,3.4,0.5,5,0.5s3.4-0.1,5-0.5v-19.6H234c0.1-1.6,0.5-3.4,0.5-5s-0.1-3.4-0.5-5h-19.6v-19.7H214.5z"/>
				<path fill="#CB483D" d="M218.7,166.4h7.6l5.6-3c-0.5-0.9-1.1-2-1.6-3L218.7,166.4z"/>
				<path fill="#CB483D" d="M231.8,186.3c0.4-0.9,0.7-1.9,1.2-3h-6.9L231.8,186.3z"/>
				<path fill="#CB483D" d="M192.4,183.4l-5.6,3c0.5,0.9,1.1,2,1.6,3l11.5-5.7L192.4,183.4L192.4,183.4z"/>
				<path fill="#CB483D" d="M186.7,163.6c-0.4,0.9-0.7,1.9-1.2,3h6.9L186.7,163.6z"/>
				<path fill="#27729C" d="M189.4,190.6c3,3.7,6.9,6.5,11.3,8.1v-13.8L189.4,190.6z"/>
				<path fill="#27729C" d="M217.7,198.6c4.5-1.6,8.5-4.5,11.3-8.1l-11.3-5.7V198.6z"/>
				<path fill="#27729C" d="M229.2,159.3c-3-3.7-6.9-6.5-11.3-8.1V165L229.2,159.3z"/>
				<path fill="#27729C" d="M200.9,151.1c-4.5,1.6-8.5,4.5-11.3,8.1l11.3,5.7V151.1z"/>
			</g>
		</g>
		<g>
			<g>
				<rect x="567.5" y="121.4" fill="#EBEDE6" width="146.1" height="106.3"/>
				<g>
					<circle fill="#727272" cx="579.5" cy="136.1" r="3"/>
					<circle fill="#727272" cx="590" cy="136.1" r="3"/>
					<circle fill="#727272" cx="600.5" cy="136.1" r="3"/>
				</g>
			</g>
			<g>
				<path fill="#5FA281" d="M615.4,174.3c0,9.5,5.2,17.6,12.7,21.8v-43.9C620.5,156.8,615.4,165.1,615.4,174.3z"/>
				<path fill="#CB483D" d="M653,152.5v43.9c7.6-4.5,12.7-12.6,12.7-21.8C665.8,165.1,660.8,156.8,653,152.5z"/>
				<path fill="#FFFFFF" d="M643.3,149.4h-5.6c-3.5,0.4-6.9,1.5-9.8,3.1v43.9c3.7,2.2,8,3.4,12.6,3.4s8.8-1.2,12.6-3.4v-43.9
					C650.1,150.8,646.7,149.5,643.3,149.4z"/>
			</g>
		</g>
	</g>
	<path fill="#F7B452" d="M456.8,448.4H376c-21.3,0-38.7-17.4-38.7-38.7l-4.6-87.3c0-21.3,17.4-38.7,38.7-38.7h89.9
		c21.3,0,38.7,17.4,38.7,38.7l-4.6,87.3C495.5,431,478.1,448.4,456.8,448.4z"/>
	<path fill="#8E654F" d="M499.7,311.2c-3.1,0-6.2-0.1-9.5-0.3c-8.9-0.5-15.6-8.2-15.1-17.1s8.2-15.7,17.1-15.1
		c54.7,3.3,65.6-28.5,78.2-65.4c3.4-9.9,6.6-19.3,10.8-27.8c3.9-8,13.6-11.3,21.5-7.4c8,3.9,11.3,13.6,7.4,21.5
		c-3.3,6.8-6.2,15.2-9.3,24.2C588.9,258.8,570.9,311.2,499.7,311.2z"/>
	
		<rect x="452.6" y="276.5" transform="matrix(-0.98 0.1992 -0.1992 -0.98 1029.1528 495.4271)" fill="#F7B452" width="74.1" height="45.9"/>
	
		<linearGradient id="SVGID_1_" gradientUnits="userSpaceOnUse" x1="425" y1="268.2" x2="425" y2="188.3" gradientTransform="matrix(1 0 0 -1 0 500)">
		<stop  offset="0.3864" style="stop-color:#694A3A"/>
		<stop  offset="0.8164" style="stop-color:#8E654F"/>
	</linearGradient>
	<path fill="url(#SVGID_1_)" d="M425,311.7L425,311.7c-13.9,0-25.2-11.4-25.2-25.2V257c0-13.9,11.4-25.2,25.2-25.2l0,0
		c13.9,0,25.2,11.4,25.2,25.2v29.5C450.2,300.3,438.9,311.7,425,311.7z"/>
	<path fill="#8E654F" d="M492.5,201.3h-1.2v-18.1c0-36.5-29.8-66.3-66.3-66.3l0,0c-36.5,0-66.3,29.8-66.3,66.3v18.1h-1.2
		c-7.6,0-13.9,6.3-13.9,13.9v1.4c0,7.6,6.3,13.9,13.9,13.9h4.5c8.7,26.5,33.7,45.9,63,45.9l0,0c29.3,0,54.4-19.3,63-45.9h4.5
		c7.6,0,13.9-6.3,13.9-13.9v-1.4C506.4,207.6,500.2,201.3,492.5,201.3z"/>
	<path fill="#FFFFFF" d="M409.1,241c1,8,7.7,14.1,15.9,14.1c8.2,0,14.9-6.2,15.9-14.1H409.1z"/>
	<g>
		<circle fill="#3B495E" cx="395.3" cy="215.5" r="4.8"/>
		<circle fill="#3B495E" cx="454.7" cy="215.5" r="4.8"/>
	</g>
	<g>
		<circle fill="#7A5443" cx="387.8" cy="238.3" r="8.7"/>
		<circle fill="#7A5443" cx="462.2" cy="238.3" r="8.7"/>
	</g>
	<linearGradient id="SVGID_2_" gradientUnits="userSpaceOnUse" x1="425" y1="116.9" x2="425" y2="210">
		<stop  offset="0.5258" style="stop-color:#44332E"/>
		<stop  offset="0.9691" style="stop-color:#8E654F"/>
	</linearGradient>
	<path fill="url(#SVGID_2_)" d="M425,116.9L425,116.9c-36.5,0-66.3,29.8-66.3,66.3V210c31.4,0-22.2-64.3,63-65.9
		c0.4,0.1,6.6,0,6.6,0c85.2,1.6,31.6,65.9,63,65.9v-26.8C491.3,146.8,461.5,116.9,425,116.9z"/>
	<g>
		<path fill="#59443B" d="M406.7,185.1l-20.1,2.6c-1.6,0.2-3-0.9-3.2-2.5l0,0c-0.2-1.6,0.9-3,2.5-3.2l20.1-2.6
			c1.6-0.2,3,0.9,3.2,2.5l0,0C409.4,183.4,408.3,184.9,406.7,185.1z"/>
		<path fill="#59443B" d="M463.3,190l-20-3.2c-1.6-0.3-2.7-1.7-2.4-3.3l0,0c0.3-1.6,1.7-2.7,3.3-2.4l20,3.2c1.6,0.3,2.7,1.7,2.4,3.3
			l0,0C466.4,189.1,464.9,190.2,463.3,190z"/>
	</g>
	<rect y="401.9" fill="#31484F" width="850" height="98.1"/>
	<path fill="#8E654F" d="M399.6,424.2c-13.3,0-25.6-2.6-36.2-11.6c-15.4-13-22.9-36.1-24.3-74.8c-0.3-8.9,6.6-16.4,15.5-16.7
		c8.9-0.3,16.4,6.6,16.7,15.5c1.3,34.5,7.7,47,12.9,51.4c6.8,5.7,19.5,4.4,39.8,1.7c21.3-2.8,47.9-6.3,76.4,2.1
		c8.5,2.5,13.4,11.5,10.9,20s-11.4,13.4-20,10.9c-22-6.5-42.9-3.7-63.1-1.1C418.3,423,408.7,424.2,399.6,424.2z"/>
	<polygon fill="#F7B452" points="377.7,308.8 377.7,335.3 334.2,345.8 339,312.8 	"/>
</g>
</svg>
